<svg xmlns="http://www.w3.org/2000/svg" shape-rendering="geometricPrecision" text-rendering="geometricPrecision" image-rendering="optimizeQuality" fill-rule="evenodd" clip-rule="evenodd" viewBox="0 0 448 511.526"><path fill="#A7C2C9" fill-rule="nonzero" d="M37.923 361.758h364.45c10.435 0 19.921 4.266 26.789 11.134l.491.534c6.581 6.829 10.642 16.096 10.642 26.257v73.922c0 10.436-4.265 19.92-11.133 26.787l-.534.492c-6.829 6.58-16.095 10.642-26.255 10.642H37.923c-10.412 0-19.886-4.264-26.757-11.134h-.032C4.266 493.525 0 484.041 0 473.605v-73.922c0-10.412 4.264-19.887 11.134-26.758v-.033c6.867-6.868 16.354-11.134 26.789-11.134z"/><rect fill="#D3EAF0" x="8.699" y="370.458" width="422.897" height="132.369" rx="29.225" ry="29.225"/><path fill="#B8261B" fill-rule="nonzero" d="M413.993 380.547H26.306a8.7 8.7 0 01-8.252-11.459c17.909-66.281 37.574-127.64 60.852-181.136 23.505-54.017 50.71-99.996 83.515-134.914 21.352-22.724 43.607-39.879 68.524-47.956 25.343-8.22 52.95-6.964 84.424 7.42 15.704 7.173 30.154 17.702 43.259 31.816 12.912 13.908 24.539 31.314 34.783 52.439a8.682 8.682 0 01-1.21 9.399l-17.894 22.156a8.678 8.678 0 01-11.652 1.729 267.97 267.97 0 00-6.873-4.558c-16.142-10.294-30.001-16.453-40.613-18.622-7.922-1.619-13.159-1.047-15.026 1.684l-.147.207c-10.847 17.544 33.302 97.961 94.365 209.173 7.624 13.887 15.558 28.334 27.243 49.778 2.288 4.203.738 9.468-3.465 11.756a8.612 8.612 0 01-4.146 1.057v.031z"/><path fill="#E3392C" d="M413.993 371.848H26.305c35.716-132.287 78.279-244.576 142.437-312.864 40.845-43.472 84.422-65.382 143.025-38.6 29.293 13.384 54.115 39.492 73.83 80.143l-18.051 22.349c-38.055-26.024-66.549-31.816-74.8-18.877-15.773 24.747 45.248 128.385 121.247 267.849z"/><path fill="#D32325" d="M413.993 376.441h-25.198c-38.402-56.032-172.569-222.779-111.396-286.953 17.796-18.67 46.946-28.727 82.741-30.116 9.241 11.564 17.74 25.247 25.456 41.156l-18.052 22.348c-38.053-26.024-66.547-31.817-74.8-18.876-15.771 24.745 45.251 132.977 121.249 272.441z"/><path fill="#A7C2C9" fill-rule="nonzero" d="M401.878 94.357c12.698 0 24.223 5.163 32.584 13.51l.044.046c8.337 8.358 13.494 19.876 13.494 32.566 0 12.698-5.163 24.223-13.51 32.583l-.046.045c-8.357 8.337-19.876 13.494-32.566 13.494-12.713 0-24.239-5.165-32.585-13.509l-.028-.028c-8.344-8.345-13.509-19.872-13.509-32.585 0-12.717 5.165-24.24 13.509-32.585l.028-.028c8.346-8.344 19.872-13.509 32.585-13.509zm22.404 23.691c-5.714-5.716-13.636-9.252-22.404-9.252a31.625 31.625 0 00-22.418 9.265 31.623 31.623 0 00-9.265 22.418 31.625 31.625 0 009.265 22.418 31.625 31.625 0 0022.418 9.265c8.768 0 16.69-3.536 22.404-9.252l.028-.028c5.713-5.712 9.251-13.635 9.251-22.403 0-8.768-3.536-16.69-9.251-22.404l-.028-.027z"/><circle fill="#D3EAF0" cx="401.878" cy="140.479" r="38.903"/><path fill="#B8D7E9" d="M440.072 133.067c.464 2.398.708 4.877.708 7.412 0 21.065-16.745 38.217-37.648 38.879a37.065 37.065 0 01-1.191-9.347c0-20.412 16.546-36.962 36.962-36.962.391 0 .781.006 1.169.018z"/><path fill="#fff" fill-rule="nonzero" d="M195.025 206.54a8.549 8.549 0 018.547-8.547 8.549 8.549 0 018.548 8.547v13.142l11.305-10.332a8.51 8.51 0 0111.487 12.555l-22.792 20.832v20.888h20.758l20.285-22.196a8.51 8.51 0 0112.021-.535 8.51 8.51 0 01.534 12.021l-9.787 10.71h13.274a8.55 8.55 0 018.548 8.548 8.55 8.55 0 01-8.548 8.548h-12.071l9.331 10.207c3.17 3.467 2.932 8.851-.535 12.022-3.467 3.17-8.85 2.932-12.021-.535l-19.827-21.694H212.12v21.211l22.792 20.832a8.51 8.51 0 01-11.487 12.555l-11.305-10.332v12.816a8.55 8.55 0 01-8.548 8.548 8.549 8.549 0 01-8.547-8.548v-12.016l-9.613 8.786a8.508 8.508 0 11-11.487-12.555l21.1-19.285v-22.012h-21.097L154.1 302.415c-3.17 3.467-8.554 3.705-12.021.535a8.511 8.511 0 01-.534-12.022l9.33-10.207h-12.933a8.55 8.55 0 010-17.096h14.137l-9.788-10.71a8.51 8.51 0 01.534-12.021 8.51 8.51 0 0112.022.535l20.284 22.196h19.894v-21.688l-21.1-19.286a8.508 8.508 0 1111.487-12.555l9.613 8.786V206.54z"/></svg>